<svg width="128" height="18" viewBox="0 0 128 18" fill="none" xmlns="http://www.w3.org/2000/svg">
<path d="M5.066 13.119C4.284 13.119 3.58133 12.983 2.958 12.711C2.346 12.4277 1.86433 12.0423 1.513 11.555C1.16167 11.0563 0.980333 10.484 0.969 9.838H2.618C2.67467 10.3933 2.90133 10.8637 3.298 11.249C3.706 11.623 4.29533 11.81 5.066 11.81C5.80267 11.81 6.38067 11.6287 6.8 11.266C7.23067 10.892 7.446 10.416 7.446 9.838C7.446 9.38467 7.32133 9.01633 7.072 8.733C6.82267 8.44967 6.511 8.23433 6.137 8.087C5.763 7.93967 5.25867 7.781 4.624 7.611C3.842 7.407 3.213 7.203 2.737 6.999C2.27233 6.795 1.87 6.47767 1.53 6.047C1.20133 5.605 1.037 5.01567 1.037 4.279C1.037 3.633 1.20133 3.06067 1.53 2.562C1.85867 2.06333 2.31767 1.678 2.907 1.406C3.50767 1.134 4.19333 0.997999 4.964 0.997999C6.07467 0.997999 6.98133 1.27567 7.684 1.831C8.398 2.38633 8.80033 3.123 8.891 4.041H7.191C7.13433 3.58767 6.89633 3.191 6.477 2.851C6.05767 2.49967 5.50233 2.324 4.811 2.324C4.165 2.324 3.638 2.494 3.23 2.834C2.822 3.16267 2.618 3.62733 2.618 4.228C2.618 4.65867 2.737 5.01 2.975 5.282C3.22433 5.554 3.52467 5.76367 3.876 5.911C4.23867 6.047 4.743 6.20567 5.389 6.387C6.171 6.60233 6.8 6.81767 7.276 7.033C7.752 7.237 8.16 7.56 8.5 8.002C8.84 8.43267 9.01 9.022 9.01 9.77C9.01 10.348 8.857 10.892 8.551 11.402C8.245 11.912 7.79167 12.3257 7.191 12.643C6.59033 12.9603 5.882 13.119 5.066 13.119ZM13.1735 4.959V10.45C13.1735 10.9033 13.2699 11.2263 13.4625 11.419C13.6552 11.6003 13.9895 11.691 14.4655 11.691H15.6045V13H14.2105C13.3492 13 12.7032 12.8017 12.2725 12.405C11.8419 12.0083 11.6265 11.3567 11.6265 10.45V4.959H10.4195V3.684H11.6265V1.338H13.1735V3.684H15.6045V4.959H13.1735ZM25.9789 7.985C25.9789 8.27967 25.9619 8.59133 25.9279 8.92H18.4819C18.5386 9.838 18.8503 10.5577 19.4169 11.079C19.9949 11.589 20.6919 11.844 21.5079 11.844C22.1766 11.844 22.7319 11.691 23.1739 11.385C23.6273 11.0677 23.9446 10.6483 24.1259 10.127H25.7919C25.5426 11.0223 25.0439 11.7533 24.2959 12.32C23.5479 12.8753 22.6186 13.153 21.5079 13.153C20.6239 13.153 19.8306 12.9547 19.1279 12.558C18.4366 12.1613 17.8926 11.6003 17.4959 10.875C17.0993 10.1383 16.9009 9.28833 16.9009 8.325C16.9009 7.36167 17.0936 6.51733 17.4789 5.792C17.8643 5.06667 18.4026 4.51133 19.0939 4.126C19.7966 3.72933 20.6013 3.531 21.5079 3.531C22.3919 3.531 23.1739 3.72367 23.8539 4.109C24.5339 4.49433 25.0553 5.027 25.4179 5.707C25.7919 6.37567 25.9789 7.135 25.9789 7.985ZM24.3809 7.662C24.3809 7.07267 24.2506 6.56833 23.9899 6.149C23.7293 5.71833 23.3723 5.39533 22.9189 5.18C22.4769 4.95333 21.9839 4.84 21.4399 4.84C20.6579 4.84 19.9893 5.08933 19.4339 5.588C18.8899 6.08667 18.5783 6.778 18.4989 7.662H24.3809ZM29.5679 5.401C29.8739 4.86833 30.3272 4.42633 30.9279 4.075C31.5399 3.71233 32.2482 3.531 33.0529 3.531C33.8802 3.531 34.6282 3.72933 35.2969 4.126C35.9769 4.52267 36.5096 5.08367 36.8949 5.809C37.2802 6.523 37.4729 7.356 37.4729 8.308C37.4729 9.24867 37.2802 10.0873 36.8949 10.824C36.5096 11.5607 35.9769 12.133 35.2969 12.541C34.6282 12.949 33.8802 13.153 33.0529 13.153C32.2596 13.153 31.5569 12.9773 30.9449 12.626C30.3442 12.2633 29.8852 11.8157 29.5679 11.283V17.42H28.0209V3.684H29.5679V5.401ZM35.8919 8.308C35.8919 7.60533 35.7502 6.99333 35.4669 6.472C35.1836 5.95067 34.7982 5.554 34.3109 5.282C33.8349 5.01 33.3079 4.874 32.7299 4.874C32.1632 4.874 31.6362 5.01567 31.1489 5.299C30.6729 5.571 30.2876 5.97333 29.9929 6.506C29.7096 7.02733 29.5679 7.63367 29.5679 8.325C29.5679 9.02767 29.7096 9.64533 29.9929 10.178C30.2876 10.6993 30.6729 11.1017 31.1489 11.385C31.6362 11.657 32.1632 11.793 32.7299 11.793C33.3079 11.793 33.8349 11.657 34.3109 11.385C34.7982 11.1017 35.1836 10.6993 35.4669 10.178C35.7502 9.64533 35.8919 9.022 35.8919 8.308ZM44.1332 3.514C44.8359 3.514 45.4705 3.667 46.0372 3.973C46.6039 4.26767 47.0459 4.71533 47.3632 5.316C47.6919 5.91667 47.8562 6.64767 47.8562 7.509V13H46.3262V7.73C46.3262 6.80067 46.0939 6.09233 45.6292 5.605C45.1645 5.10633 44.5299 4.857 43.7252 4.857C42.9092 4.857 42.2575 5.112 41.7702 5.622C41.2942 6.132 41.0562 6.87433 41.0562 7.849V13H39.5092V0.42H41.0562V5.01C41.3622 4.534 41.7815 4.16567 42.3142 3.905C42.8582 3.64433 43.4645 3.514 44.1332 3.514ZM58.8832 7.985C58.8832 8.27967 58.8662 8.59133 58.8322 8.92H51.3862C51.4429 9.838 51.7546 10.5577 52.3212 11.079C52.8992 11.589 53.5962 11.844 54.4122 11.844C55.0809 11.844 55.6362 11.691 56.0782 11.385C56.5316 11.0677 56.8489 10.6483 57.0302 10.127H58.6962C58.4469 11.0223 57.9482 11.7533 57.2002 12.32C56.4522 12.8753 55.5229 13.153 54.4122 13.153C53.5282 13.153 52.7349 12.9547 52.0322 12.558C51.3409 12.1613 50.7969 11.6003 50.4002 10.875C50.0036 10.1383 49.8052 9.28833 49.8052 8.325C49.8052 7.36167 49.9979 6.51733 50.3832 5.792C50.7686 5.06667 51.3069 4.51133 51.9982 4.126C52.7009 3.72933 53.5056 3.531 54.4122 3.531C55.2962 3.531 56.0782 3.72367 56.7582 4.109C57.4382 4.49433 57.9596 5.027 58.3222 5.707C58.6962 6.37567 58.8832 7.135 58.8832 7.985ZM57.2852 7.662C57.2852 7.07267 57.1549 6.56833 56.8942 6.149C56.6336 5.71833 56.2766 5.39533 55.8232 5.18C55.3812 4.95333 54.8882 4.84 54.3442 4.84C53.5622 4.84 52.8936 5.08933 52.3382 5.588C51.7942 6.08667 51.4826 6.778 51.4032 7.662H57.2852ZM65.4642 3.514C66.5975 3.514 67.5155 3.85967 68.2182 4.551C68.9209 5.231 69.2722 6.217 69.2722 7.509V13H67.7422V7.73C67.7422 6.80067 67.5099 6.09233 67.0452 5.605C66.5805 5.10633 65.9459 4.857 65.1412 4.857C64.3252 4.857 63.6735 5.112 63.1862 5.622C62.7102 6.132 62.4722 6.87433 62.4722 7.849V13H60.9252V3.684H62.4722V5.01C62.7782 4.534 63.1919 4.16567 63.7132 3.905C64.2459 3.64433 64.8295 3.514 65.4642 3.514ZM75.7535 7.067C75.7535 5.911 76.0141 4.874 76.5355 3.956C77.0568 3.02667 77.7651 2.30133 78.6605 1.78C79.5671 1.25867 80.5701 0.997999 81.6695 0.997999C82.9615 0.997999 84.0891 1.30967 85.0525 1.933C86.0158 2.55633 86.7185 3.44033 87.1605 4.585H85.3075C84.9788 3.871 84.5028 3.32133 83.8795 2.936C83.2675 2.55067 82.5308 2.358 81.6695 2.358C80.8421 2.358 80.0998 2.55067 79.4425 2.936C78.7851 3.32133 78.2695 3.871 77.8955 4.585C77.5215 5.28767 77.3345 6.115 77.3345 7.067C77.3345 8.00767 77.5215 8.835 77.8955 9.549C78.2695 10.2517 78.7851 10.7957 79.4425 11.181C80.0998 11.5663 80.8421 11.759 81.6695 11.759C82.5308 11.759 83.2675 11.572 83.8795 11.198C84.5028 10.8127 84.9788 10.263 85.3075 9.549H87.1605C86.7185 10.6823 86.0158 11.5607 85.0525 12.184C84.0891 12.796 82.9615 13.102 81.6695 13.102C80.5701 13.102 79.5671 12.847 78.6605 12.337C77.7651 11.8157 77.0568 11.096 76.5355 10.178C76.0141 9.26 75.7535 8.223 75.7535 7.067ZM93.5263 13.153C92.6536 13.153 91.8603 12.9547 91.1463 12.558C90.4436 12.1613 89.8883 11.6003 89.4803 10.875C89.0836 10.1383 88.8853 9.28833 88.8853 8.325C88.8853 7.373 89.0893 6.53433 89.4973 5.809C89.9166 5.07233 90.4833 4.51133 91.1973 4.126C91.9113 3.72933 92.7103 3.531 93.5943 3.531C94.4783 3.531 95.2773 3.72933 95.9913 4.126C96.7053 4.51133 97.2663 5.06667 97.6743 5.792C98.0936 6.51733 98.3033 7.36167 98.3033 8.325C98.3033 9.28833 98.088 10.1383 97.6573 10.875C97.238 11.6003 96.6656 12.1613 95.9403 12.558C95.215 12.9547 94.4103 13.153 93.5263 13.153ZM93.5263 11.793C94.0816 11.793 94.603 11.6627 95.0903 11.402C95.5776 11.1413 95.9686 10.7503 96.2633 10.229C96.5693 9.70767 96.7223 9.073 96.7223 8.325C96.7223 7.577 96.575 6.94233 96.2803 6.421C95.9856 5.89967 95.6003 5.51433 95.1243 5.265C94.6483 5.00433 94.1326 4.874 93.5773 4.874C93.0106 4.874 92.4893 5.00433 92.0133 5.265C91.5486 5.51433 91.1746 5.89967 90.8913 6.421C90.608 6.94233 90.4663 7.577 90.4663 8.325C90.4663 9.08433 90.6023 9.72467 90.8743 10.246C91.1576 10.7673 91.5316 11.1583 91.9963 11.419C92.461 11.6683 92.971 11.793 93.5263 11.793ZM101.884 0.42V13H100.337V0.42H101.884ZM106.068 0.42V13H104.521V0.42H106.068ZM109.504 2.171C109.209 2.171 108.96 2.069 108.756 1.865C108.552 1.661 108.45 1.41167 108.45 1.117C108.45 0.822333 108.552 0.573 108.756 0.368999C108.96 0.164999 109.209 0.0629994 109.504 0.0629994C109.787 0.0629994 110.025 0.164999 110.218 0.368999C110.422 0.573 110.524 0.822333 110.524 1.117C110.524 1.41167 110.422 1.661 110.218 1.865C110.025 2.069 109.787 2.171 109.504 2.171ZM110.252 3.684V13H108.705V3.684H110.252ZM121.388 7.985C121.388 8.27967 121.371 8.59133 121.337 8.92H113.891C113.948 9.838 114.259 10.5577 114.826 11.079C115.404 11.589 116.101 11.844 116.917 11.844C117.586 11.844 118.141 11.691 118.583 11.385C119.036 11.0677 119.354 10.6483 119.535 10.127H121.201C120.952 11.0223 120.453 11.7533 119.705 12.32C118.957 12.8753 118.028 13.153 116.917 13.153C116.033 13.153 115.24 12.9547 114.537 12.558C113.846 12.1613 113.302 11.6003 112.905 10.875C112.508 10.1383 112.31 9.28833 112.31 8.325C112.31 7.36167 112.503 6.51733 112.888 5.792C113.273 5.06667 113.812 4.51133 114.503 4.126C115.206 3.72933 116.01 3.531 116.917 3.531C117.801 3.531 118.583 3.72367 119.263 4.109C119.943 4.49433 120.464 5.027 120.827 5.707C121.201 6.37567 121.388 7.135 121.388 7.985ZM119.79 7.662C119.79 7.07267 119.66 6.56833 119.399 6.149C119.138 5.71833 118.781 5.39533 118.328 5.18C117.886 4.95333 117.393 4.84 116.849 4.84C116.067 4.84 115.398 5.08933 114.843 5.588C114.299 6.08667 113.987 6.778 113.908 7.662H119.79ZM124.977 5.197C125.249 4.66433 125.634 4.25067 126.133 3.956C126.643 3.66133 127.261 3.514 127.986 3.514V5.112H127.578C125.844 5.112 124.977 6.05267 124.977 7.934V13H123.43V3.684H124.977V5.197Z" fill="#1B1A1A"/>
</svg>
