<svg width="98" height="12" viewBox="0 0 98 12" fill="none" xmlns="http://www.w3.org/2000/svg">
<path d="M4.172 11.098C3.528 11.098 2.94933 10.986 2.436 10.762C1.932 10.5287 1.53533 10.2113 1.246 9.81C0.956667 9.39933 0.807333 8.928 0.798 8.396H2.156C2.20267 8.85333 2.38933 9.24067 2.716 9.558C3.052 9.866 3.53733 10.02 4.172 10.02C4.77867 10.02 5.25467 9.87067 5.6 9.572C5.95467 9.264 6.132 8.872 6.132 8.396C6.132 8.02267 6.02933 7.71933 5.824 7.486C5.61867 7.25267 5.362 7.07533 5.054 6.954C4.746 6.83267 4.33067 6.702 3.808 6.562C3.164 6.394 2.646 6.226 2.254 6.058C1.87133 5.89 1.54 5.62867 1.26 5.274C0.989333 4.91 0.854 4.42467 0.854 3.818C0.854 3.286 0.989333 2.81467 1.26 2.404C1.53067 1.99333 1.90867 1.676 2.394 1.452C2.88867 1.228 3.45333 1.116 4.088 1.116C5.00267 1.116 5.74933 1.34467 6.328 1.802C6.916 2.25933 7.24733 2.866 7.322 3.622H5.922C5.87533 3.24867 5.67933 2.922 5.334 2.642C4.98867 2.35267 4.53133 2.208 3.962 2.208C3.43 2.208 2.996 2.348 2.66 2.628C2.324 2.89867 2.156 3.28133 2.156 3.776C2.156 4.13067 2.254 4.42 2.45 4.644C2.65533 4.868 2.90267 5.04067 3.192 5.162C3.49067 5.274 3.906 5.40467 4.438 5.554C5.082 5.73133 5.6 5.90867 5.992 6.086C6.384 6.254 6.72 6.52 7 6.884C7.28 7.23867 7.42 7.724 7.42 8.34C7.42 8.816 7.294 9.264 7.042 9.684C6.79 10.104 6.41667 10.4447 5.922 10.706C5.42733 10.9673 4.844 11.098 4.172 11.098ZM16.2948 6.87C16.2948 7.11267 16.2808 7.36933 16.2528 7.64H10.1208C10.1675 8.396 10.4241 8.98867 10.8908 9.418C11.3668 9.838 11.9408 10.048 12.6128 10.048C13.1635 10.048 13.6208 9.922 13.9848 9.67C14.3581 9.40867 14.6195 9.06333 14.7688 8.634H16.1408C15.9355 9.37133 15.5248 9.97333 14.9088 10.44C14.2928 10.8973 13.5275 11.126 12.6128 11.126C11.8848 11.126 11.2315 10.9627 10.6528 10.636C10.0835 10.3093 9.63546 9.84733 9.3088 9.25C8.98213 8.64333 8.8188 7.94333 8.8188 7.15C8.8188 6.35667 8.97746 5.66133 9.2948 5.064C9.61213 4.46667 10.0555 4.00933 10.6248 3.692C11.2035 3.36533 11.8661 3.202 12.6128 3.202C13.3408 3.202 13.9848 3.36067 14.5448 3.678C15.1048 3.99533 15.5341 4.434 15.8328 4.994C16.1408 5.54467 16.2948 6.17 16.2948 6.87ZM14.9788 6.604C14.9788 6.11867 14.8715 5.70333 14.6568 5.358C14.4421 5.00333 14.1481 4.73733 13.7748 4.56C13.4108 4.37333 13.0048 4.28 12.5568 4.28C11.9128 4.28 11.3621 4.48533 10.9048 4.896C10.4568 5.30667 10.2001 5.876 10.1348 6.604H14.9788ZM21.7144 3.188C22.6478 3.188 23.4038 3.47267 23.9824 4.042C24.5611 4.602 24.8504 5.414 24.8504 6.478V11H23.5904V6.66C23.5904 5.89467 23.3991 5.31133 23.0164 4.91C22.6338 4.49933 22.1111 4.294 21.4484 4.294C20.7764 4.294 20.2398 4.504 19.8384 4.924C19.4464 5.344 19.2504 5.95533 19.2504 6.758V11H17.9764V3.328H19.2504V4.42C19.5024 4.028 19.8431 3.72467 20.2724 3.51C20.7111 3.29533 21.1918 3.188 21.7144 3.188ZM27.5895 2.082C27.3468 2.082 27.1415 1.998 26.9735 1.83C26.8055 1.662 26.7215 1.45667 26.7215 1.214C26.7215 0.971333 26.8055 0.766 26.9735 0.598C27.1415 0.43 27.3468 0.345999 27.5895 0.345999C27.8228 0.345999 28.0188 0.43 28.1775 0.598C28.3455 0.766 28.4295 0.971333 28.4295 1.214C28.4295 1.45667 28.3455 1.662 28.1775 1.83C28.0188 1.998 27.8228 2.082 27.5895 2.082ZM28.2055 3.328V11H26.9315V3.328H28.2055ZM33.7228 11.126C33.0042 11.126 32.3508 10.9627 31.7628 10.636C31.1842 10.3093 30.7268 9.84733 30.3908 9.25C30.0642 8.64333 29.9008 7.94333 29.9008 7.15C29.9008 6.366 30.0688 5.67533 30.4048 5.078C30.7502 4.47133 31.2168 4.00933 31.8048 3.692C32.3928 3.36533 33.0508 3.202 33.7788 3.202C34.5068 3.202 35.1648 3.36533 35.7528 3.692C36.3408 4.00933 36.8028 4.46667 37.1388 5.064C37.4842 5.66133 37.6568 6.35667 37.6568 7.15C37.6568 7.94333 37.4795 8.64333 37.1248 9.25C36.7795 9.84733 36.3082 10.3093 35.7108 10.636C35.1135 10.9627 34.4508 11.126 33.7228 11.126ZM33.7228 10.006C34.1802 10.006 34.6095 9.89867 35.0108 9.684C35.4122 9.46933 35.7342 9.14733 35.9768 8.718C36.2288 8.28867 36.3548 7.766 36.3548 7.15C36.3548 6.534 36.2335 6.01133 35.9908 5.582C35.7482 5.15267 35.4308 4.83533 35.0388 4.63C34.6468 4.41533 34.2222 4.308 33.7648 4.308C33.2982 4.308 32.8688 4.41533 32.4768 4.63C32.0942 4.83533 31.7862 5.15267 31.5528 5.582C31.3195 6.01133 31.2028 6.534 31.2028 7.15C31.2028 7.77533 31.3148 8.30267 31.5388 8.732C31.7722 9.16133 32.0802 9.48333 32.4628 9.698C32.8455 9.90333 33.2655 10.006 33.7228 10.006ZM40.6059 4.574C40.8299 4.13533 41.1472 3.79467 41.5579 3.552C41.9779 3.30933 42.4866 3.188 43.0839 3.188V4.504H42.7479C41.3199 4.504 40.6059 5.27867 40.6059 6.828V11H39.3319V3.328H40.6059V4.574ZM54.811 4.098C54.811 4.91 54.531 5.58667 53.971 6.128C53.4203 6.66 52.5757 6.926 51.437 6.926H49.561V11H48.287V1.242H51.437C52.5383 1.242 53.3737 1.508 53.943 2.04C54.5217 2.572 54.811 3.258 54.811 4.098ZM51.437 5.876C52.1463 5.876 52.669 5.722 53.005 5.414C53.341 5.106 53.509 4.66733 53.509 4.098C53.509 2.894 52.8183 2.292 51.437 2.292H49.561V5.876H51.437ZM55.9184 7.136C55.9184 6.352 56.0771 5.666 56.3944 5.078C56.7117 4.48067 57.1457 4.01867 57.6964 3.692C58.2564 3.36533 58.8771 3.202 59.5584 3.202C60.2304 3.202 60.8137 3.34667 61.3084 3.636C61.8031 3.92533 62.1717 4.28933 62.4144 4.728V3.328H63.7024V11H62.4144V9.572C62.1624 10.02 61.7844 10.3933 61.2804 10.692C60.7857 10.9813 60.2071 11.126 59.5444 11.126C58.8631 11.126 58.2471 10.958 57.6964 10.622C57.1457 10.286 56.7117 9.81467 56.3944 9.208C56.0771 8.60133 55.9184 7.91067 55.9184 7.136ZM62.4144 7.15C62.4144 6.57133 62.2977 6.06733 62.0644 5.638C61.8311 5.20867 61.5137 4.882 61.1124 4.658C60.7204 4.42467 60.2864 4.308 59.8104 4.308C59.3344 4.308 58.9004 4.42 58.5084 4.644C58.1164 4.868 57.8037 5.19467 57.5704 5.624C57.3371 6.05333 57.2204 6.55733 57.2204 7.136C57.2204 7.724 57.3371 8.23733 57.5704 8.676C57.8037 9.10533 58.1164 9.43667 58.5084 9.67C58.9004 9.894 59.3344 10.006 59.8104 10.006C60.2864 10.006 60.7204 9.894 61.1124 9.67C61.5137 9.43667 61.8311 9.10533 62.0644 8.676C62.2977 8.23733 62.4144 7.72867 62.4144 7.15ZM67.1293 4.574C67.3533 4.13533 67.6707 3.79467 68.0813 3.552C68.5013 3.30933 69.01 3.188 69.6073 3.188V4.504H69.2713C67.8433 4.504 67.1293 5.27867 67.1293 6.828V11H65.8553V3.328H67.1293V4.574ZM72.632 4.378V8.9C72.632 9.27333 72.7113 9.53933 72.87 9.698C73.0287 9.84733 73.304 9.922 73.696 9.922H74.634V11H73.486C72.7767 11 72.2447 10.8367 71.89 10.51C71.5353 10.1833 71.358 9.64667 71.358 8.9V4.378H70.364V3.328H71.358V1.396H72.632V3.328H74.634V4.378H72.632ZM79.9156 3.188C80.8489 3.188 81.6049 3.47267 82.1836 4.042C82.7623 4.602 83.0516 5.414 83.0516 6.478V11H81.7916V6.66C81.7916 5.89467 81.6003 5.31133 81.2176 4.91C80.8349 4.49933 80.3123 4.294 79.6496 4.294C78.9776 4.294 78.4409 4.504 78.0396 4.924C77.6476 5.344 77.4516 5.95533 77.4516 6.758V11H76.1776V3.328H77.4516V4.42C77.7036 4.028 78.0443 3.72467 78.4736 3.51C78.9123 3.29533 79.3929 3.188 79.9156 3.188ZM92.1327 6.87C92.1327 7.11267 92.1187 7.36933 92.0907 7.64H85.9587C86.0054 8.396 86.262 8.98867 86.7287 9.418C87.2047 9.838 87.7787 10.048 88.4507 10.048C89.0014 10.048 89.4587 9.922 89.8227 9.67C90.196 9.40867 90.4574 9.06333 90.6067 8.634H91.9787C91.7734 9.37133 91.3627 9.97333 90.7467 10.44C90.1307 10.8973 89.3654 11.126 88.4507 11.126C87.7227 11.126 87.0694 10.9627 86.4907 10.636C85.9214 10.3093 85.4734 9.84733 85.1467 9.25C84.82 8.64333 84.6567 7.94333 84.6567 7.15C84.6567 6.35667 84.8154 5.66133 85.1327 5.064C85.45 4.46667 85.8934 4.00933 86.4627 3.692C87.0414 3.36533 87.704 3.202 88.4507 3.202C89.1787 3.202 89.8227 3.36067 90.3827 3.678C90.9427 3.99533 91.372 4.434 91.6707 4.994C91.9787 5.54467 92.1327 6.17 92.1327 6.87ZM90.8167 6.604C90.8167 6.11867 90.7094 5.70333 90.4947 5.358C90.28 5.00333 89.986 4.73733 89.6127 4.56C89.2487 4.37333 88.8427 4.28 88.3947 4.28C87.7507 4.28 87.2 4.48533 86.7427 4.896C86.2947 5.30667 86.038 5.876 85.9727 6.604H90.8167ZM95.0883 4.574C95.3123 4.13533 95.6297 3.79467 96.0403 3.552C96.4603 3.30933 96.969 3.188 97.5663 3.188V4.504H97.2303C95.8023 4.504 95.0883 5.27867 95.0883 6.828V11H93.8143V3.328H95.0883V4.574Z" fill="#645C55"/>
</svg>
